<?xml version="1.0" encoding="UTF-8" standalone="no"?>
<!-- Created with Inkscape (http://www.inkscape.org/) -->

<svg
   xmlns:dc="http://purl.org/dc/elements/1.1/"
   xmlns:cc="http://creativecommons.org/ns#"
   xmlns:rdf="http://www.w3.org/1999/02/22-rdf-syntax-ns#"
   xmlns:svg="http://www.w3.org/2000/svg"
   xmlns="http://www.w3.org/2000/svg"
   xmlns:sodipodi="http://sodipodi.sourceforge.net/DTD/sodipodi-0.dtd"
   xmlns:inkscape="http://www.inkscape.org/namespaces/inkscape"
   width="498.457"
   height="291.12183"
   id="svg2"
   version="1.1"
   inkscape:version="0.48.0 r9654"
   sodipodi:docname="scalingmatrix.svg">
  <defs
     id="defs4" />
  <sodipodi:namedview
     id="base"
     pagecolor="#ffffff"
     bordercolor="#666666"
     borderopacity="1.0"
     inkscape:pageopacity="0.0"
     inkscape:pageshadow="2"
     inkscape:zoom="1.01"
     inkscape:cx="167.17695"
     inkscape:cy="176.37328"
     inkscape:document-units="px"
     inkscape:current-layer="layer1"
     showgrid="false"
     units="px"
     fit-margin-top="0"
     fit-margin-left="0"
     fit-margin-right="0"
     fit-margin-bottom="0"
     inkscape:window-width="1132"
     inkscape:window-height="614"
     inkscape:window-x="121"
     inkscape:window-y="9"
     inkscape:window-maximized="0" />
  <metadata
     id="metadata7">
    <rdf:RDF>
      <cc:Work
         rdf:about="">
        <dc:format>image/svg+xml</dc:format>
        <dc:type
           rdf:resource="http://purl.org/dc/dcmitype/StillImage" />
        <dc:title />
      </cc:Work>
    </rdf:RDF>
  </metadata>
  <g
     inkscape:label="Layer 1"
     inkscape:groupmode="layer"
     id="layer1"
     transform="translate(-66.185817,-405.40002)">
    <path
       inkscape:connector-curvature="0"
       id="path3055"
       style="font-size:84px;font-style:normal;font-variant:normal;font-weight:normal;font-stretch:normal;line-height:125%;letter-spacing:0px;word-spacing:0px;fill:#333333;fill-opacity:1;stroke:none;font-family:Monospace;-inkscape-font-specification:Monospace"
       d="m 257.81856,456.2811 c -10e-6,-0.87321 0.30165,-1.62737 0.90499,-2.26247 0.61919,-0.63506 1.35747,-0.95259 2.21484,-0.95262 0.88909,3e-5 1.65118,0.31756 2.28628,0.95262 0.63506,0.6351 0.9526,1.38926 0.95261,2.26247 -10e-6,0.88912 -0.31755,1.64328 -0.95261,2.26246 -0.61922,0.61922 -1.38131,0.92882 -2.28628,0.9288 -0.88912,2e-5 -1.63534,-0.30164 -2.23865,-0.90498 -0.58746,-0.60331 -0.88119,-1.3654 -0.88118,-2.28628 m 3.16746,-14.52742 c -2.23866,3e-5 -3.91368,1.20668 -5.02506,3.61995 -1.09552,2.41332 -1.64327,6.08883 -1.64326,11.02655 -1e-5,4.92186 0.54774,8.58944 1.64326,11.00273 1.11138,2.41329 2.7864,3.61995 5.02506,3.61994 2.25451,10e-6 3.92953,-1.20665 5.02506,-3.61994 1.11136,-2.41329 1.66705,-6.08087 1.66707,-11.00273 -2e-5,-4.93772 -0.55571,-8.61323 -1.66707,-11.02655 -1.09553,-2.41327 -2.77055,-3.61992 -5.02506,-3.61995 m 0,-3.81047 c 3.79458,4e-5 6.66036,1.55598 8.59737,4.66783 1.95284,3.11191 2.92927,7.70828 2.9293,13.78914 -3e-5,6.065 -0.97646,10.65344 -2.9293,13.76532 -1.93701,3.11188 -4.80279,4.66782 -8.59737,4.66782 -3.7946,0 -6.66039,-1.55594 -8.59737,-4.66782 -1.93699,-3.11188 -2.90549,-7.70032 -2.90549,-13.76532 0,-6.08086 0.9685,-10.67723 2.90549,-13.78914 1.93698,-3.11185 4.80277,-4.66779 8.59737,-4.66783" />
    <path
       inkscape:connector-curvature="0"
       id="path3057"
       style="font-size:84px;font-style:normal;font-variant:normal;font-weight:normal;font-stretch:normal;line-height:125%;letter-spacing:0px;word-spacing:0px;fill:#333333;fill-opacity:1;stroke:none;font-family:Monospace;-inkscape-font-specification:Monospace"
       d="m 375.18102,456.2811 c -10e-6,-0.87321 0.30165,-1.62737 0.90499,-2.26247 0.61919,-0.63506 1.35746,-0.95259 2.21483,-0.95262 0.8891,3e-5 1.65119,0.31756 2.28629,0.95262 0.63506,0.6351 0.95259,1.38926 0.95261,2.26247 -2e-5,0.88912 -0.31755,1.64328 -0.95261,2.26246 -0.61922,0.61922 -1.38131,0.92882 -2.28629,0.9288 -0.88912,2e-5 -1.63534,-0.30164 -2.23865,-0.90498 -0.58746,-0.60331 -0.88118,-1.3654 -0.88117,-2.28628 m 3.16745,-14.52742 c -2.23866,3e-5 -3.91367,1.20668 -5.02505,3.61995 -1.09552,2.41332 -1.64328,6.08883 -1.64326,11.02655 -2e-5,4.92186 0.54774,8.58944 1.64326,11.00273 1.11138,2.41329 2.78639,3.61995 5.02505,3.61994 2.25451,10e-6 3.92953,-1.20665 5.02506,-3.61994 1.11136,-2.41329 1.66706,-6.08087 1.66708,-11.00273 -2e-5,-4.93772 -0.55572,-8.61323 -1.66708,-11.02655 -1.09553,-2.41327 -2.77055,-3.61992 -5.02506,-3.61995 m 0,-3.81047 c 3.79458,4e-5 6.66037,1.55598 8.59738,4.66783 1.95284,3.11191 2.92927,7.70828 2.92929,13.78914 -2e-5,6.065 -0.97645,10.65344 -2.92929,13.76532 -1.93701,3.11188 -4.8028,4.66782 -8.59738,4.66782 -3.7946,0 -6.66039,-1.55594 -8.59737,-4.66782 -1.93699,-3.11188 -2.90548,-7.70032 -2.90548,-13.76532 0,-6.08086 0.96849,-10.67723 2.90548,-13.78914 1.93698,-3.11185 4.80277,-4.66779 8.59737,-4.66783" />
    <path
       inkscape:connector-curvature="0"
       id="path3059"
       style="font-size:84px;font-style:normal;font-variant:normal;font-weight:normal;font-stretch:normal;line-height:125%;letter-spacing:0px;word-spacing:0px;fill:#333333;fill-opacity:1;stroke:none;font-family:Monospace;-inkscape-font-specification:Monospace"
       d="m 492.54348,456.2811 c -10e-6,-0.87321 0.30165,-1.62737 0.90499,-2.26247 0.61918,-0.63506 1.35746,-0.95259 2.21483,-0.95262 0.88909,3e-5 1.65119,0.31756 2.28628,0.95262 0.63506,0.6351 0.9526,1.38926 0.95262,2.26247 -2e-5,0.88912 -0.31756,1.64328 -0.95262,2.26246 -0.61921,0.61922 -1.38131,0.92882 -2.28628,0.9288 -0.88912,2e-5 -1.63534,-0.30164 -2.23865,-0.90498 -0.58746,-0.60331 -0.88118,-1.3654 -0.88117,-2.28628 m 3.16745,-14.52742 c -2.23866,3e-5 -3.91368,1.20668 -5.02506,3.61995 -1.09551,2.41332 -1.64327,6.08883 -1.64326,11.02655 -1e-5,4.92186 0.54775,8.58944 1.64326,11.00273 1.11138,2.41329 2.7864,3.61995 5.02506,3.61994 2.25451,10e-6 3.92953,-1.20665 5.02506,-3.61994 1.11136,-2.41329 1.66705,-6.08087 1.66708,-11.00273 -3e-5,-4.93772 -0.55572,-8.61323 -1.66708,-11.02655 -1.09553,-2.41327 -2.77055,-3.61992 -5.02506,-3.61995 m 0,-3.81047 c 3.79458,4e-5 6.66036,1.55598 8.59737,4.66783 1.95284,3.11191 2.92928,7.70828 2.9293,13.78914 -2e-5,6.065 -0.97646,10.65344 -2.9293,13.76532 -1.93701,3.11188 -4.80279,4.66782 -8.59737,4.66782 -3.7946,0 -6.66039,-1.55594 -8.59737,-4.66782 -1.93699,-3.11188 -2.90549,-7.70032 -2.90549,-13.76532 0,-6.08086 0.9685,-10.67723 2.90549,-13.78914 1.93698,-3.11185 4.80277,-4.66779 8.59737,-4.66783" />
    <path
       inkscape:connector-curvature="0"
       id="path3061"
       style="font-size:84px;font-style:normal;font-variant:normal;font-weight:normal;font-stretch:normal;line-height:125%;letter-spacing:0px;word-spacing:0px;fill:#333333;fill-opacity:1;stroke:none;font-family:Monospace;-inkscape-font-specification:Monospace"
       d="m 140.45611,517.24861 c -1e-5,-0.87321 0.30165,-1.62737 0.90499,-2.26247 0.61918,-0.63506 1.35746,-0.95259 2.21483,-0.95262 0.88909,3e-5 1.65119,0.31756 2.28628,0.95262 0.63506,0.6351 0.9526,1.38926 0.95262,2.26247 -2e-5,0.88912 -0.31756,1.64328 -0.95262,2.26246 -0.61921,0.61922 -1.38131,0.92882 -2.28628,0.9288 -0.88912,2e-5 -1.63534,-0.30164 -2.23865,-0.90498 -0.58746,-0.60331 -0.88118,-1.3654 -0.88117,-2.28628 m 3.16745,-14.52742 c -2.23866,3e-5 -3.91368,1.20668 -5.02506,3.61995 -1.09551,2.41332 -1.64327,6.08883 -1.64326,11.02655 -1e-5,4.92186 0.54775,8.58944 1.64326,11.00273 1.11138,2.41329 2.7864,3.61995 5.02506,3.61994 2.25451,10e-6 3.92953,-1.20665 5.02506,-3.61994 1.11136,-2.41329 1.66706,-6.08087 1.66708,-11.00273 -2e-5,-4.93772 -0.55572,-8.61323 -1.66708,-11.02655 -1.09553,-2.41327 -2.77055,-3.61992 -5.02506,-3.61995 m 0,-3.81047 c 3.79458,4e-5 6.66037,1.55598 8.59737,4.66783 1.95284,3.11191 2.92928,7.70828 2.9293,13.78914 -2e-5,6.065 -0.97646,10.65344 -2.9293,13.76532 -1.937,3.11188 -4.80279,4.66782 -8.59737,4.66782 -3.7946,0 -6.66039,-1.55594 -8.59737,-4.66782 -1.93699,-3.11188 -2.90548,-7.70032 -2.90548,-13.76532 0,-6.08086 0.96849,-10.67723 2.90548,-13.78914 1.93698,-3.11185 4.80277,-4.66779 8.59737,-4.66783" />
    <path
       inkscape:connector-curvature="0"
       id="path3065"
       style="font-size:84px;font-style:normal;font-variant:normal;font-weight:normal;font-stretch:normal;line-height:125%;letter-spacing:0px;word-spacing:0px;fill:#333333;fill-opacity:1;stroke:none;font-family:Monospace;-inkscape-font-specification:Monospace"
       d="m 375.18102,517.24861 c -10e-6,-0.87321 0.30165,-1.62737 0.90499,-2.26247 0.61919,-0.63506 1.35746,-0.95259 2.21483,-0.95262 0.8891,3e-5 1.65119,0.31756 2.28629,0.95262 0.63506,0.6351 0.95259,1.38926 0.95261,2.26247 -2e-5,0.88912 -0.31755,1.64328 -0.95261,2.26246 -0.61922,0.61922 -1.38131,0.92882 -2.28629,0.9288 -0.88912,2e-5 -1.63534,-0.30164 -2.23865,-0.90498 -0.58746,-0.60331 -0.88118,-1.3654 -0.88117,-2.28628 m 3.16745,-14.52742 c -2.23866,3e-5 -3.91367,1.20668 -5.02505,3.61995 -1.09552,2.41332 -1.64328,6.08883 -1.64326,11.02655 -2e-5,4.92186 0.54774,8.58944 1.64326,11.00273 1.11138,2.41329 2.78639,3.61995 5.02505,3.61994 2.25451,10e-6 3.92953,-1.20665 5.02506,-3.61994 1.11136,-2.41329 1.66706,-6.08087 1.66708,-11.00273 -2e-5,-4.93772 -0.55572,-8.61323 -1.66708,-11.02655 -1.09553,-2.41327 -2.77055,-3.61992 -5.02506,-3.61995 m 0,-3.81047 c 3.79458,4e-5 6.66037,1.55598 8.59738,4.66783 1.95284,3.11191 2.92927,7.70828 2.92929,13.78914 -2e-5,6.065 -0.97645,10.65344 -2.92929,13.76532 -1.93701,3.11188 -4.8028,4.66782 -8.59738,4.66782 -3.7946,0 -6.66039,-1.55594 -8.59737,-4.66782 -1.93699,-3.11188 -2.90548,-7.70032 -2.90548,-13.76532 0,-6.08086 0.96849,-10.67723 2.90548,-13.78914 1.93698,-3.11185 4.80277,-4.66779 8.59737,-4.66783" />
    <path
       inkscape:connector-curvature="0"
       id="path3067"
       style="font-size:84px;font-style:normal;font-variant:normal;font-weight:normal;font-stretch:normal;line-height:125%;letter-spacing:0px;word-spacing:0px;fill:#333333;fill-opacity:1;stroke:none;font-family:Monospace;-inkscape-font-specification:Monospace"
       d="m 492.54348,517.24861 c -10e-6,-0.87321 0.30165,-1.62737 0.90499,-2.26247 0.61918,-0.63506 1.35746,-0.95259 2.21483,-0.95262 0.88909,3e-5 1.65119,0.31756 2.28628,0.95262 0.63506,0.6351 0.9526,1.38926 0.95262,2.26247 -2e-5,0.88912 -0.31756,1.64328 -0.95262,2.26246 -0.61921,0.61922 -1.38131,0.92882 -2.28628,0.9288 -0.88912,2e-5 -1.63534,-0.30164 -2.23865,-0.90498 -0.58746,-0.60331 -0.88118,-1.3654 -0.88117,-2.28628 m 3.16745,-14.52742 c -2.23866,3e-5 -3.91368,1.20668 -5.02506,3.61995 -1.09551,2.41332 -1.64327,6.08883 -1.64326,11.02655 -1e-5,4.92186 0.54775,8.58944 1.64326,11.00273 1.11138,2.41329 2.7864,3.61995 5.02506,3.61994 2.25451,10e-6 3.92953,-1.20665 5.02506,-3.61994 1.11136,-2.41329 1.66705,-6.08087 1.66708,-11.00273 -3e-5,-4.93772 -0.55572,-8.61323 -1.66708,-11.02655 -1.09553,-2.41327 -2.77055,-3.61992 -5.02506,-3.61995 m 0,-3.81047 c 3.79458,4e-5 6.66036,1.55598 8.59737,4.66783 1.95284,3.11191 2.92928,7.70828 2.9293,13.78914 -2e-5,6.065 -0.97646,10.65344 -2.9293,13.76532 -1.93701,3.11188 -4.80279,4.66782 -8.59737,4.66782 -3.7946,0 -6.66039,-1.55594 -8.59737,-4.66782 -1.93699,-3.11188 -2.90549,-7.70032 -2.90549,-13.76532 0,-6.08086 0.9685,-10.67723 2.90549,-13.78914 1.93698,-3.11185 4.80277,-4.66779 8.59737,-4.66783" />
    <path
       inkscape:connector-curvature="0"
       id="path3069"
       style="font-size:84px;font-style:normal;font-variant:normal;font-weight:normal;font-stretch:normal;line-height:125%;letter-spacing:0px;word-spacing:0px;fill:#333333;fill-opacity:1;stroke:none;font-family:Monospace;-inkscape-font-specification:Monospace"
       d="m 140.45611,578.21612 c -1e-5,-0.87321 0.30165,-1.62737 0.90499,-2.26247 0.61918,-0.63506 1.35746,-0.95259 2.21483,-0.95262 0.88909,3e-5 1.65119,0.31756 2.28628,0.95262 0.63506,0.6351 0.9526,1.38926 0.95262,2.26247 -2e-5,0.88912 -0.31756,1.64328 -0.95262,2.26246 -0.61921,0.61922 -1.38131,0.92882 -2.28628,0.9288 -0.88912,2e-5 -1.63534,-0.30164 -2.23865,-0.90498 -0.58746,-0.60331 -0.88118,-1.3654 -0.88117,-2.28628 m 3.16745,-14.52742 c -2.23866,3e-5 -3.91368,1.20668 -5.02506,3.61995 -1.09551,2.41332 -1.64327,6.08883 -1.64326,11.02655 -1e-5,4.92186 0.54775,8.58943 1.64326,11.00273 1.11138,2.41329 2.7864,3.61995 5.02506,3.61994 2.25451,1e-5 3.92953,-1.20665 5.02506,-3.61994 1.11136,-2.4133 1.66706,-6.08087 1.66708,-11.00273 -2e-5,-4.93772 -0.55572,-8.61323 -1.66708,-11.02655 -1.09553,-2.41327 -2.77055,-3.61992 -5.02506,-3.61995 m 0,-3.81047 c 3.79458,4e-5 6.66037,1.55598 8.59737,4.66783 1.95284,3.11191 2.92928,7.70828 2.9293,13.78914 -2e-5,6.065 -0.97646,10.65344 -2.9293,13.76532 -1.937,3.11188 -4.80279,4.66782 -8.59737,4.66782 -3.7946,0 -6.66039,-1.55594 -8.59737,-4.66782 -1.93699,-3.11188 -2.90548,-7.70032 -2.90548,-13.76532 0,-6.08086 0.96849,-10.67723 2.90548,-13.78914 1.93698,-3.11185 4.80277,-4.66779 8.59737,-4.66783" />
    <path
       inkscape:connector-curvature="0"
       id="path3071"
       style="font-size:84px;font-style:normal;font-variant:normal;font-weight:normal;font-stretch:normal;line-height:125%;letter-spacing:0px;word-spacing:0px;fill:#333333;fill-opacity:1;stroke:none;font-family:Monospace;-inkscape-font-specification:Monospace"
       d="m 257.81856,578.21612 c -10e-6,-0.87321 0.30165,-1.62737 0.90499,-2.26247 0.61919,-0.63506 1.35747,-0.95259 2.21484,-0.95262 0.88909,3e-5 1.65118,0.31756 2.28628,0.95262 0.63506,0.6351 0.9526,1.38926 0.95261,2.26247 -10e-6,0.88912 -0.31755,1.64328 -0.95261,2.26246 -0.61922,0.61922 -1.38131,0.92882 -2.28628,0.9288 -0.88912,2e-5 -1.63534,-0.30164 -2.23865,-0.90498 -0.58746,-0.60331 -0.88119,-1.3654 -0.88118,-2.28628 m 3.16746,-14.52742 c -2.23866,3e-5 -3.91368,1.20668 -5.02506,3.61995 -1.09552,2.41332 -1.64327,6.08883 -1.64326,11.02655 -1e-5,4.92186 0.54774,8.58943 1.64326,11.00273 1.11138,2.41329 2.7864,3.61995 5.02506,3.61994 2.25451,1e-5 3.92953,-1.20665 5.02506,-3.61994 1.11136,-2.4133 1.66705,-6.08087 1.66707,-11.00273 -2e-5,-4.93772 -0.55571,-8.61323 -1.66707,-11.02655 -1.09553,-2.41327 -2.77055,-3.61992 -5.02506,-3.61995 m 0,-3.81047 c 3.79458,4e-5 6.66036,1.55598 8.59737,4.66783 1.95284,3.11191 2.92927,7.70828 2.9293,13.78914 -3e-5,6.065 -0.97646,10.65344 -2.9293,13.76532 -1.93701,3.11188 -4.80279,4.66782 -8.59737,4.66782 -3.7946,0 -6.66039,-1.55594 -8.59737,-4.66782 -1.93699,-3.11188 -2.90549,-7.70032 -2.90549,-13.76532 0,-6.08086 0.9685,-10.67723 2.90549,-13.78914 1.93698,-3.11185 4.80277,-4.66779 8.59737,-4.66783" />
    <path
       inkscape:connector-curvature="0"
       id="path3075"
       style="font-size:84px;font-style:normal;font-variant:normal;font-weight:normal;font-stretch:normal;line-height:125%;letter-spacing:0px;word-spacing:0px;fill:#333333;fill-opacity:1;stroke:none;font-family:Monospace;-inkscape-font-specification:Monospace"
       d="m 492.54348,578.21612 c -10e-6,-0.87321 0.30165,-1.62737 0.90499,-2.26247 0.61918,-0.63506 1.35746,-0.95259 2.21483,-0.95262 0.88909,3e-5 1.65119,0.31756 2.28628,0.95262 0.63506,0.6351 0.9526,1.38926 0.95262,2.26247 -2e-5,0.88912 -0.31756,1.64328 -0.95262,2.26246 -0.61921,0.61922 -1.38131,0.92882 -2.28628,0.9288 -0.88912,2e-5 -1.63534,-0.30164 -2.23865,-0.90498 -0.58746,-0.60331 -0.88118,-1.3654 -0.88117,-2.28628 m 3.16745,-14.52742 c -2.23866,3e-5 -3.91368,1.20668 -5.02506,3.61995 -1.09551,2.41332 -1.64327,6.08883 -1.64326,11.02655 -1e-5,4.92186 0.54775,8.58943 1.64326,11.00273 1.11138,2.41329 2.7864,3.61995 5.02506,3.61994 2.25451,1e-5 3.92953,-1.20665 5.02506,-3.61994 1.11136,-2.4133 1.66705,-6.08087 1.66708,-11.00273 -3e-5,-4.93772 -0.55572,-8.61323 -1.66708,-11.02655 -1.09553,-2.41327 -2.77055,-3.61992 -5.02506,-3.61995 m 0,-3.81047 c 3.79458,4e-5 6.66036,1.55598 8.59737,4.66783 1.95284,3.11191 2.92928,7.70828 2.9293,13.78914 -2e-5,6.065 -0.97646,10.65344 -2.9293,13.76532 -1.93701,3.11188 -4.80279,4.66782 -8.59737,4.66782 -3.7946,0 -6.66039,-1.55594 -8.59737,-4.66782 -1.93699,-3.11188 -2.90549,-7.70032 -2.90549,-13.76532 0,-6.08086 0.9685,-10.67723 2.90549,-13.78914 1.93698,-3.11185 4.80277,-4.66779 8.59737,-4.66783" />
    <path
       inkscape:connector-curvature="0"
       id="path3077"
       style="font-size:84px;font-style:normal;font-variant:normal;font-weight:normal;font-stretch:normal;line-height:125%;letter-spacing:0px;word-spacing:0px;fill:#333333;fill-opacity:1;stroke:none;font-family:Monospace;-inkscape-font-specification:Monospace"
       d="m 140.45611,639.18363 c -1e-5,-0.87321 0.30165,-1.62737 0.90499,-2.26247 0.61918,-0.63506 1.35746,-0.95259 2.21483,-0.95262 0.88909,3e-5 1.65119,0.31756 2.28628,0.95262 0.63506,0.6351 0.9526,1.38926 0.95262,2.26247 -2e-5,0.88912 -0.31756,1.64328 -0.95262,2.26246 -0.61921,0.61922 -1.38131,0.92882 -2.28628,0.9288 -0.88912,2e-5 -1.63534,-0.30164 -2.23865,-0.90498 -0.58746,-0.60331 -0.88118,-1.3654 -0.88117,-2.28628 m 3.16745,-14.52742 c -2.23866,3e-5 -3.91368,1.20668 -5.02506,3.61995 -1.09551,2.41332 -1.64327,6.08883 -1.64326,11.02655 -1e-5,4.92186 0.54775,8.58943 1.64326,11.00273 1.11138,2.41329 2.7864,3.61994 5.02506,3.61994 2.25451,0 3.92953,-1.20665 5.02506,-3.61994 1.11136,-2.4133 1.66706,-6.08087 1.66708,-11.00273 -2e-5,-4.93772 -0.55572,-8.61323 -1.66708,-11.02655 -1.09553,-2.41327 -2.77055,-3.61992 -5.02506,-3.61995 m 0,-3.81047 c 3.79458,4e-5 6.66037,1.55598 8.59737,4.66783 1.95284,3.11191 2.92928,7.70828 2.9293,13.78914 -2e-5,6.065 -0.97646,10.65344 -2.9293,13.76531 -1.937,3.11189 -4.80279,4.66783 -8.59737,4.66783 -3.7946,0 -6.66039,-1.55594 -8.59737,-4.66783 -1.93699,-3.11187 -2.90548,-7.70031 -2.90548,-13.76531 0,-6.08086 0.96849,-10.67723 2.90548,-13.78914 1.93698,-3.11185 4.80277,-4.66779 8.59737,-4.66783" />
    <path
       inkscape:connector-curvature="0"
       id="path3079"
       style="font-size:84px;font-style:normal;font-variant:normal;font-weight:normal;font-stretch:normal;line-height:125%;letter-spacing:0px;word-spacing:0px;fill:#333333;fill-opacity:1;stroke:none;font-family:Monospace;-inkscape-font-specification:Monospace"
       d="m 257.81856,639.18363 c -10e-6,-0.87321 0.30165,-1.62737 0.90499,-2.26247 0.61919,-0.63506 1.35747,-0.95259 2.21484,-0.95262 0.88909,3e-5 1.65118,0.31756 2.28628,0.95262 0.63506,0.6351 0.9526,1.38926 0.95261,2.26247 -10e-6,0.88912 -0.31755,1.64328 -0.95261,2.26246 -0.61922,0.61922 -1.38131,0.92882 -2.28628,0.9288 -0.88912,2e-5 -1.63534,-0.30164 -2.23865,-0.90498 -0.58746,-0.60331 -0.88119,-1.3654 -0.88118,-2.28628 m 3.16746,-14.52742 c -2.23866,3e-5 -3.91368,1.20668 -5.02506,3.61995 -1.09552,2.41332 -1.64327,6.08883 -1.64326,11.02655 -1e-5,4.92186 0.54774,8.58943 1.64326,11.00273 1.11138,2.41329 2.7864,3.61994 5.02506,3.61994 2.25451,0 3.92953,-1.20665 5.02506,-3.61994 1.11136,-2.4133 1.66705,-6.08087 1.66707,-11.00273 -2e-5,-4.93772 -0.55571,-8.61323 -1.66707,-11.02655 -1.09553,-2.41327 -2.77055,-3.61992 -5.02506,-3.61995 m 0,-3.81047 c 3.79458,4e-5 6.66036,1.55598 8.59737,4.66783 1.95284,3.11191 2.92927,7.70828 2.9293,13.78914 -3e-5,6.065 -0.97646,10.65344 -2.9293,13.76531 -1.93701,3.11189 -4.80279,4.66783 -8.59737,4.66783 -3.7946,0 -6.66039,-1.55594 -8.59737,-4.66783 -1.93699,-3.11187 -2.90549,-7.70031 -2.90549,-13.76531 0,-6.08086 0.9685,-10.67723 2.90549,-13.78914 1.93698,-3.11185 4.80277,-4.66779 8.59737,-4.66783" />
    <path
       inkscape:connector-curvature="0"
       id="path3081"
       style="font-size:84px;font-style:normal;font-variant:normal;font-weight:normal;font-stretch:normal;line-height:125%;letter-spacing:0px;word-spacing:0px;fill:#333333;fill-opacity:1;stroke:none;font-family:Monospace;-inkscape-font-specification:Monospace"
       d="m 375.18102,639.18363 c -10e-6,-0.87321 0.30165,-1.62737 0.90499,-2.26247 0.61919,-0.63506 1.35746,-0.95259 2.21483,-0.95262 0.8891,3e-5 1.65119,0.31756 2.28629,0.95262 0.63506,0.6351 0.95259,1.38926 0.95261,2.26247 -2e-5,0.88912 -0.31755,1.64328 -0.95261,2.26246 -0.61922,0.61922 -1.38131,0.92882 -2.28629,0.9288 -0.88912,2e-5 -1.63534,-0.30164 -2.23865,-0.90498 -0.58746,-0.60331 -0.88118,-1.3654 -0.88117,-2.28628 m 3.16745,-14.52742 c -2.23866,3e-5 -3.91367,1.20668 -5.02505,3.61995 -1.09552,2.41332 -1.64328,6.08883 -1.64326,11.02655 -2e-5,4.92186 0.54774,8.58943 1.64326,11.00273 1.11138,2.41329 2.78639,3.61994 5.02505,3.61994 2.25451,0 3.92953,-1.20665 5.02506,-3.61994 1.11136,-2.4133 1.66706,-6.08087 1.66708,-11.00273 -2e-5,-4.93772 -0.55572,-8.61323 -1.66708,-11.02655 -1.09553,-2.41327 -2.77055,-3.61992 -5.02506,-3.61995 m 0,-3.81047 c 3.79458,4e-5 6.66037,1.55598 8.59738,4.66783 1.95284,3.11191 2.92927,7.70828 2.92929,13.78914 -2e-5,6.065 -0.97645,10.65344 -2.92929,13.76531 -1.93701,3.11189 -4.8028,4.66783 -8.59738,4.66783 -3.7946,0 -6.66039,-1.55594 -8.59737,-4.66783 -1.93699,-3.11187 -2.90548,-7.70031 -2.90548,-13.76531 0,-6.08086 0.96849,-10.67723 2.90548,-13.78914 1.93698,-3.11185 4.80277,-4.66779 8.59737,-4.66783" />
    <path
       inkscape:connector-curvature="0"
       id="path3083"
       style="font-size:84px;font-style:normal;font-variant:normal;font-weight:normal;font-stretch:normal;line-height:125%;letter-spacing:0px;word-spacing:0px;fill:#333333;fill-opacity:1;stroke:none;font-family:Monospace;-inkscape-font-specification:Monospace"
       d="m 487.47079,652.99658 7.47805,0 0,-27.17341 -8.04962,1.80997 0,-4.38204 8.00199,-1.76234 4.81072,0 0,31.50782 7.38278,0 0,4.04862 -19.62392,0 0,-4.04862" />
    <text
       xml:space="preserve"
       style="font-size:23.22571944999999971px;font-style:normal;font-weight:normal;line-height:125%;letter-spacing:0px;word-spacing:0px;fill:#00004f;fill-opacity:1;stroke:none;font-family:Sans"
       x="86.093575"
       y="416.15427"
       id="text3104"
       sodipodi:linespacing="125%"><tspan
         sodipodi:role="line"
         id="tspan3106"
         x="86.093575"
         y="416.15427" /></text>
    <g
       transform="matrix(0.64812353,0,0,0.56180779,27.755489,146.1571)"
       style="font-size:581.18731688999992002px;font-style:normal;font-variant:normal;font-weight:normal;font-stretch:normal;line-height:125%;letter-spacing:0px;word-spacing:0px;fill:#333333;fill-opacity:1;stroke:none;font-family:Monospace;-inkscape-font-specification:Monospace"
       id="text2985-7">
      <path
         d="m 59.294758,461.44423 58.607312,0 0,18.3164 -40.235782,0 0,481.55472 40.235782,0 0,18.3164 -58.607312,0 0,-518.18752"
         id="path3013-9"
         inkscape:connector-curvature="0"
         sodipodi:nodetypes="ccccccccc"
         style="fill:#333333;fill-opacity:1" />
      <path
         sodipodi:nodetypes="ccccccccc"
         inkscape:connector-curvature="0"
         id="path3130"
         d="m 59.294758,461.44423 58.607312,0 0,18.3164 -40.235782,0 0,481.55472 40.235782,0 0,18.3164 -58.607312,0 0,-518.18752"
         style="fill:#333333;fill-opacity:1" />
    </g>
    <g
       id="g3132"
       style="font-size:581.18731688999992002px;font-style:normal;font-variant:normal;font-weight:normal;font-stretch:normal;line-height:125%;letter-spacing:0px;word-spacing:0px;fill:#333333;fill-opacity:1;stroke:none;font-family:Monospace;-inkscape-font-specification:Monospace"
       transform="matrix(-0.64812353,0,0,0.56180779,603.60853,146.1571)">
      <path
         sodipodi:nodetypes="ccccccccc"
         inkscape:connector-curvature="0"
         id="path3134"
         d="m 59.294758,461.44423 58.607312,0 0,18.3164 -40.235782,0 0,481.55472 40.235782,0 0,18.3164 -58.607312,0 0,-518.18752"
         style="fill:#333333;fill-opacity:1" />
      <path
         d="m 59.294758,461.44423 58.607312,0 0,18.3164 -40.235782,0 0,481.55472 40.235782,0 0,18.3164 -58.607312,0 0,-518.18752"
         id="path3136"
         inkscape:connector-curvature="0"
         sodipodi:nodetypes="ccccccccc"
         style="fill:#333333;fill-opacity:1" />
    </g>
    <g
       style="font-size:48px;font-style:normal;font-variant:normal;font-weight:normal;font-stretch:normal;line-height:125%;letter-spacing:0px;word-spacing:0px;fill:#333333;fill-opacity:1;stroke:none;font-family:Monospace;-inkscape-font-specification:Monospace"
       id="text3031">
      <path
         d="m 132.99049,448.18591 0,4.21875 c -1.23439,-0.71873 -2.47658,-1.25779 -3.72656,-1.61718 -1.25002,-0.35936 -2.52345,-0.53904 -3.82031,-0.53907 -1.95314,3e-5 -3.41408,0.32034 -4.38281,0.96094 -0.95314,0.62502 -1.4297,1.58596 -1.42969,2.88281 -10e-6,1.1719 0.35936,2.0469 1.07812,2.625 0.71874,0.57814 2.5078,1.14064 5.36719,1.6875 l 1.73438,0.32813 c 2.1406,0.40626 3.75779,1.21876 4.85156,2.4375 1.10935,1.21876 1.66404,2.8047 1.66406,4.75781 -2e-5,2.59376 -0.9219,4.625 -2.76562,6.09375 -1.84377,1.45313 -4.40627,2.17969 -7.6875,2.17969 -1.29689,0 -2.65626,-0.14063 -4.07813,-0.42188 -1.42188,-0.26562 -2.96094,-0.67187 -4.61719,-1.21875 l 0,-4.45312 c 1.60937,0.82813 3.14843,1.45313 4.61719,1.875 1.46874,0.40625 2.85936,0.60938 4.17188,0.60937 1.90623,1e-5 3.38279,-0.38281 4.42968,-1.14843 1.04686,-0.78125 1.5703,-1.86719 1.57032,-3.25782 -2e-5,-1.99999 -1.91408,-3.3828 -5.74219,-4.14843 l -0.1875,-0.0469 -1.61719,-0.32812 c -2.48438,-0.48437 -4.29688,-1.29687 -5.4375,-2.4375 -1.14063,-1.15624 -1.71094,-2.72655 -1.71094,-4.71094 0,-2.51561 0.85156,-4.4531 2.55469,-5.8125 1.70312,-1.37498 4.1328,-2.06248 7.28906,-2.0625 1.40624,2e-5 2.7578,0.13284 4.05469,0.39844 1.29686,0.25002 2.57029,0.63283 3.82031,1.14843"
         style="fill:#333333"
         id="path4132" />
      <path
         d="m 165.26393,447.27185 -9.39844,12.5625 10.3125,13.6875 -4.99218,0 -7.6875,-10.52344 -7.66407,10.52344 -4.99218,0 10.3125,-13.6875 -9.39844,-12.5625 4.78125,0 6.96094,9.49219 6.91406,-9.49219 4.85156,0"
         style="fill:#333333"
         id="path4134" />
    </g>
    <g
       style="font-size:48px;font-style:normal;font-variant:normal;font-weight:normal;font-stretch:normal;line-height:125%;letter-spacing:0px;word-spacing:0px;fill:#333333;fill-opacity:1;stroke:none;font-family:Monospace;-inkscape-font-specification:Monospace"
       id="text3035">
      <path
         d="m 252.99049,508.18591 0,4.21875 c -1.23439,-0.71873 -2.47658,-1.25779 -3.72656,-1.61718 -1.25002,-0.35936 -2.52345,-0.53904 -3.82031,-0.53907 -1.95314,3e-5 -3.41408,0.32034 -4.38281,0.96094 -0.95314,0.62502 -1.4297,1.58596 -1.42969,2.88281 -1e-5,1.1719 0.35936,2.0469 1.07812,2.625 0.71874,0.57814 2.5078,1.14064 5.36719,1.6875 l 1.73438,0.32813 c 2.1406,0.40626 3.75779,1.21876 4.85156,2.4375 1.10935,1.21876 1.66404,2.8047 1.66406,4.75781 -2e-5,2.59376 -0.9219,4.625 -2.76562,6.09375 -1.84377,1.45313 -4.40627,2.17969 -7.6875,2.17969 -1.29689,0 -2.65626,-0.14063 -4.07813,-0.42188 -1.42188,-0.26562 -2.96094,-0.67187 -4.61719,-1.21875 l 0,-4.45312 c 1.60937,0.82813 3.14843,1.45313 4.61719,1.875 1.46874,0.40625 2.85936,0.60938 4.17188,0.60937 1.90623,10e-6 3.38279,-0.38281 4.42968,-1.14843 1.04686,-0.78125 1.5703,-1.86719 1.57032,-3.25782 -2e-5,-1.99999 -1.91408,-3.3828 -5.74219,-4.14843 l -0.1875,-0.0469 -1.61719,-0.32812 c -2.48438,-0.48437 -4.29688,-1.29687 -5.4375,-2.4375 -1.14063,-1.15624 -1.71094,-2.72655 -1.71094,-4.71094 0,-2.51561 0.85156,-4.4531 2.55469,-5.8125 1.70312,-1.37498 4.1328,-2.06248 7.28906,-2.0625 1.40624,2e-5 2.7578,0.13284 4.05469,0.39844 1.29686,0.25002 2.57029,0.63283 3.82031,1.14843"
         style="fill:#333333"
         id="path4127" />
      <path
         d="m 279.17018,525.08435 c -0.71877,1.82813 -1.63283,4.23438 -2.74219,7.21875 -1.54689,4.125 -2.58595,6.64062 -3.11718,7.54688 -0.71877,1.21874 -1.6172,2.1328 -2.69532,2.74218 -1.07813,0.60937 -2.33594,0.91406 -3.77343,0.91407 l -3.46875,0 0,-3.60938 2.55468,0 c 1.26562,-10e-6 2.25781,-0.36719 2.97657,-1.10156 0.71874,-0.73438 1.6328,-2.63282 2.74218,-5.69531 l -10.14843,-25.82813 4.57031,0 7.78125,20.53125 7.66406,-20.53125 4.57031,0 -6.91406,17.8125"
         style="fill:#333333"
         id="path4129" />
    </g>
    <g
       style="font-size:48px;font-style:normal;font-variant:normal;font-weight:normal;font-stretch:normal;line-height:125%;letter-spacing:0px;word-spacing:0px;fill:#333333;fill-opacity:1;stroke:none;font-family:Monospace;-inkscape-font-specification:Monospace"
       id="text3039">
      <path
         d="m 372.99048,564.18591 0,4.21875 c -1.2344,-0.71873 -2.47658,-1.25779 -3.72656,-1.61718 -1.25002,-0.35936 -2.52346,-0.53904 -3.82032,-0.53907 -1.95313,3e-5 -3.41407,0.32034 -4.38281,0.96094 -0.95313,0.62502 -1.4297,1.58596 -1.42969,2.88281 -1e-5,1.1719 0.35937,2.0469 1.07813,2.625 0.71874,0.57814 2.5078,1.14064 5.36719,1.6875 l 1.73437,0.32813 c 2.14061,0.40626 3.75779,1.21876 4.85156,2.4375 1.10935,1.21876 1.66404,2.8047 1.66407,4.75781 -3e-5,2.59376 -0.9219,4.625 -2.76563,6.09375 -1.84377,1.45313 -4.40627,2.17969 -7.6875,2.17969 -1.29689,0 -2.65626,-0.14063 -4.07812,-0.42188 -1.42189,-0.26562 -2.96095,-0.67187 -4.61719,-1.21875 l 0,-4.45312 c 1.60937,0.82813 3.14843,1.45313 4.61719,1.875 1.46873,0.40625 2.85936,0.60938 4.17187,0.60937 1.90624,10e-6 3.3828,-0.38281 4.42969,-1.14843 1.04685,-0.78125 1.57029,-1.86719 1.57031,-3.25782 -2e-5,-1.99999 -1.91408,-3.3828 -5.74219,-4.14843 l -0.1875,-0.0469 -1.61718,-0.32812 c -2.48439,-0.48437 -4.29689,-1.29687 -5.4375,-2.4375 -1.14063,-1.15624 -1.71095,-2.72655 -1.71094,-4.71094 -10e-6,-2.51561 0.85156,-4.4531 2.55469,-5.8125 1.70311,-1.37498 4.1328,-2.06248 7.28906,-2.0625 1.40623,2e-5 2.75779,0.13284 4.05469,0.39844 1.29685,0.25002 2.57029,0.63283 3.82031,1.14843"
         style="fill:#333333"
         id="path4122" />
      <path
         d="m 384.3811,563.22498 19.05469,0 0,3.9375 -15.07031,18.84375 15.07031,0 0,3.51562 -19.61719,0 0,-3.98437 15.07032,-18.86719 -14.50782,0 0,-3.44531"
         style="fill:#333333"
         id="path4124" />
    </g>
  </g>
</svg>
