<?xml version="1.0" encoding="UTF-8" standalone="no"?>
<!-- Created with Inkscape (http://www.inkscape.org/) -->

<svg
   xmlns:dc="http://purl.org/dc/elements/1.1/"
   xmlns:cc="http://creativecommons.org/ns#"
   xmlns:rdf="http://www.w3.org/1999/02/22-rdf-syntax-ns#"
   xmlns:svg="http://www.w3.org/2000/svg"
   xmlns="http://www.w3.org/2000/svg"
   xmlns:sodipodi="http://sodipodi.sourceforge.net/DTD/sodipodi-0.dtd"
   xmlns:inkscape="http://www.inkscape.org/namespaces/inkscape"
   width="498.457"
   height="291.12183"
   id="svg2"
   version="1.1"
   inkscape:version="0.48.0 r9654"
   sodipodi:docname="scalingmatrix.svg">
  <defs
     id="defs4" />
  <sodipodi:namedview
     id="base"
     pagecolor="#ffffff"
     bordercolor="#666666"
     borderopacity="1.0"
     inkscape:pageopacity="0.0"
     inkscape:pageshadow="2"
     inkscape:zoom="1"
     inkscape:cx="308.81418"
     inkscape:cy="164.15985"
     inkscape:document-units="px"
     inkscape:current-layer="layer1"
     showgrid="false"
     units="px"
     fit-margin-top="0"
     fit-margin-left="0"
     fit-margin-right="0"
     fit-margin-bottom="0"
     inkscape:window-width="1132"
     inkscape:window-height="614"
     inkscape:window-x="196"
     inkscape:window-y="210"
     inkscape:window-maximized="0" />
  <metadata
     id="metadata7">
    <rdf:RDF>
      <cc:Work
         rdf:about="">
        <dc:format>image/svg+xml</dc:format>
        <dc:type
           rdf:resource="http://purl.org/dc/dcmitype/StillImage" />
        <dc:title />
      </cc:Work>
    </rdf:RDF>
  </metadata>
  <g
     inkscape:label="Layer 1"
     inkscape:groupmode="layer"
     id="layer1"
     transform="translate(-66.185817,-405.40002)">
    <g
       style="font-size:80px;font-style:normal;font-weight:normal;line-height:125%;letter-spacing:0px;word-spacing:0px;fill:#000000;fill-opacity:1;stroke:none;font-family:Sans"
       id="text3038"
       transform="matrix(0.58064295,0,0,0.58064295,27.755489,170.00736)">
      <path
         d="m 185.35992,516.81793 12.87891,0 0,-46.79883 -13.86328,3.11719 0,-7.54687 13.78125,-3.03516 8.28516,0 0,54.26367 12.71484,0 0,6.97266 -33.79688,0 0,-6.97266"
         style="font-size:84px;font-variant:normal;font-stretch:normal;font-family:Monospace;-inkscape-font-specification:Monospace"
         id="path3053"
         inkscape:connector-curvature="0" />
      <path
         d="m 396.22125,493.02887 c -2e-5,-1.50387 0.51951,-2.8027 1.5586,-3.89648 1.06638,-1.09372 2.33786,-1.64059 3.81445,-1.64063 1.53122,4e-5 2.84372,0.54691 3.9375,1.64063 1.09372,1.09378 1.64059,2.39261 1.64062,3.89648 -3e-5,1.53128 -0.5469,2.83011 -1.64062,3.89648 -1.06643,1.06644 -2.37893,1.59964 -3.9375,1.59961 -1.53127,3e-5 -2.81643,-0.5195 -3.85547,-1.55859 -1.01174,-1.03904 -1.5176,-2.35153 -1.51758,-3.9375 m 5.45508,-25.01953 c -3.85549,5e-5 -6.74025,2.07818 -8.6543,6.23437 -1.88673,4.1563 -2.83009,10.48637 -2.83007,18.99024 -2e-5,8.47658 0.94334,14.79298 2.83007,18.94922 1.91405,4.15625 4.79881,6.23438 8.6543,6.23437 3.88278,10e-6 6.76755,-2.07812 8.6543,-6.23437 1.91402,-4.15624 2.87105,-10.47264 2.87109,-18.94922 -4e-5,-8.50387 -0.95707,-14.83394 -2.87109,-18.99024 -1.88675,-4.15619 -4.77152,-6.23432 -8.6543,-6.23437 m 0,-6.5625 c 6.53513,6e-5 11.47067,2.67975 14.80664,8.03906 3.36324,5.35942 5.04488,13.27543 5.04492,23.74805 -4e-5,10.44533 -1.68168,18.34767 -5.04492,23.70703 -3.33597,5.35938 -8.27151,8.03906 -14.80664,8.03906 -6.53517,0 -11.47072,-2.67968 -14.80664,-8.03906 -3.33594,-5.35936 -5.00391,-13.2617 -5.00391,-23.70703 0,-10.47262 1.66797,-18.38863 5.00391,-23.74805 3.33592,-5.35931 8.27147,-8.039 14.80664,-8.03906"
         style="font-size:84px;font-variant:normal;font-stretch:normal;font-family:Monospace;-inkscape-font-specification:Monospace"
         id="path3055"
         inkscape:connector-curvature="0" />
      <path
         d="m 598.34625,493.02887 c -2e-5,-1.50387 0.51951,-2.8027 1.5586,-3.89648 1.06638,-1.09372 2.33786,-1.64059 3.81445,-1.64063 1.53122,4e-5 2.84372,0.54691 3.9375,1.64063 1.09372,1.09378 1.64059,2.39261 1.64062,3.89648 -3e-5,1.53128 -0.5469,2.83011 -1.64062,3.89648 -1.06643,1.06644 -2.37893,1.59964 -3.9375,1.59961 -1.53127,3e-5 -2.81643,-0.5195 -3.85547,-1.55859 -1.01174,-1.03904 -1.5176,-2.35153 -1.51758,-3.9375 m 5.45508,-25.01953 c -3.85549,5e-5 -6.74025,2.07818 -8.6543,6.23437 -1.88673,4.1563 -2.83009,10.48637 -2.83007,18.99024 -2e-5,8.47658 0.94334,14.79298 2.83007,18.94922 1.91405,4.15625 4.79881,6.23438 8.6543,6.23437 3.88278,10e-6 6.76755,-2.07812 8.6543,-6.23437 1.91402,-4.15624 2.87105,-10.47264 2.87109,-18.94922 -4e-5,-8.50387 -0.95707,-14.83394 -2.87109,-18.99024 -1.88675,-4.15619 -4.77152,-6.23432 -8.6543,-6.23437 m 0,-6.5625 c 6.53513,6e-5 11.47067,2.67975 14.80664,8.03906 3.36324,5.35942 5.04488,13.27543 5.04492,23.74805 -4e-5,10.44533 -1.68168,18.34767 -5.04492,23.70703 -3.33597,5.35938 -8.27151,8.03906 -14.80664,8.03906 -6.53517,0 -11.47072,-2.67968 -14.80664,-8.03906 -3.33594,-5.35936 -5.00391,-13.2617 -5.00391,-23.70703 0,-10.47262 1.66797,-18.38863 5.00391,-23.74805 3.33592,-5.35931 8.27147,-8.039 14.80664,-8.03906"
         style="font-size:84px;font-variant:normal;font-stretch:normal;font-family:Monospace;-inkscape-font-specification:Monospace"
         id="path3057"
         inkscape:connector-curvature="0" />
      <path
         d="m 800.47125,493.02887 c -2e-5,-1.50387 0.51951,-2.8027 1.5586,-3.89648 1.06638,-1.09372 2.33786,-1.64059 3.81445,-1.64063 1.53122,4e-5 2.84372,0.54691 3.9375,1.64063 1.09372,1.09378 1.64059,2.39261 1.64062,3.89648 -3e-5,1.53128 -0.5469,2.83011 -1.64062,3.89648 -1.06643,1.06644 -2.37893,1.59964 -3.9375,1.59961 -1.53127,3e-5 -2.81643,-0.5195 -3.85547,-1.55859 -1.01174,-1.03904 -1.5176,-2.35153 -1.51758,-3.9375 m 5.45508,-25.01953 c -3.85549,5e-5 -6.74025,2.07818 -8.6543,6.23437 -1.88673,4.1563 -2.83009,10.48637 -2.83007,18.99024 -2e-5,8.47658 0.94334,14.79298 2.83007,18.94922 1.91405,4.15625 4.79881,6.23438 8.6543,6.23437 3.88278,10e-6 6.76755,-2.07812 8.6543,-6.23437 1.91402,-4.15624 2.87105,-10.47264 2.87109,-18.94922 -4e-5,-8.50387 -0.95707,-14.83394 -2.87109,-18.99024 -1.88675,-4.15619 -4.77152,-6.23432 -8.6543,-6.23437 m 0,-6.5625 c 6.53513,6e-5 11.47067,2.67975 14.80664,8.03906 3.36324,5.35942 5.04488,13.27543 5.04492,23.74805 -4e-5,10.44533 -1.68168,18.34767 -5.04492,23.70703 -3.33597,5.35938 -8.27151,8.03906 -14.80664,8.03906 -6.53517,0 -11.47072,-2.67968 -14.80664,-8.03906 -3.33594,-5.35936 -5.00391,-13.2617 -5.00391,-23.70703 0,-10.47262 1.66797,-18.38863 5.00391,-23.74805 3.33592,-5.35931 8.27147,-8.039 14.80664,-8.03906"
         style="font-size:84px;font-variant:normal;font-stretch:normal;font-family:Monospace;-inkscape-font-specification:Monospace"
         id="path3059"
         inkscape:connector-curvature="0" />
      <path
         d="m 194.09625,598.02887 c -2e-5,-1.50387 0.51951,-2.8027 1.5586,-3.89648 1.06638,-1.09372 2.33786,-1.64059 3.81445,-1.64063 1.53122,4e-5 2.84372,0.54691 3.9375,1.64063 1.09372,1.09378 1.64059,2.39261 1.64062,3.89648 -3e-5,1.53128 -0.5469,2.83011 -1.64062,3.89648 -1.06643,1.06644 -2.37893,1.59964 -3.9375,1.59961 -1.53127,3e-5 -2.81643,-0.5195 -3.85547,-1.55859 -1.01174,-1.03904 -1.5176,-2.35153 -1.51758,-3.9375 m 5.45508,-25.01953 c -3.85549,5e-5 -6.74025,2.07818 -8.6543,6.23437 -1.88673,4.1563 -2.83009,10.48637 -2.83007,18.99024 -2e-5,8.47658 0.94334,14.79298 2.83007,18.94922 1.91405,4.15625 4.79881,6.23438 8.6543,6.23437 3.88278,10e-6 6.76755,-2.07812 8.6543,-6.23437 1.91402,-4.15624 2.87105,-10.47264 2.87109,-18.94922 -4e-5,-8.50387 -0.95707,-14.83394 -2.87109,-18.99024 -1.88675,-4.15619 -4.77152,-6.23432 -8.6543,-6.23437 m 0,-6.5625 c 6.53513,6e-5 11.47067,2.67975 14.80664,8.03906 3.36324,5.35942 5.04488,13.27543 5.04492,23.74805 -4e-5,10.44533 -1.68168,18.34767 -5.04492,23.70703 -3.33597,5.35938 -8.27151,8.03906 -14.80664,8.03906 -6.53517,0 -11.47072,-2.67968 -14.80664,-8.03906 -3.33594,-5.35936 -5.00391,-13.2617 -5.00391,-23.70703 0,-10.47262 1.66797,-18.38863 5.00391,-23.74805 3.33592,-5.35931 8.27147,-8.039 14.80664,-8.03906"
         style="font-size:84px;font-variant:normal;font-stretch:normal;font-family:Monospace;-inkscape-font-specification:Monospace"
         id="path3061"
         inkscape:connector-curvature="0" />
      <path
         d="m 387.48492,621.81793 12.87891,0 0,-46.79883 -13.86328,3.11719 0,-7.54687 13.78125,-3.03516 8.28516,0 0,54.26367 12.71484,0 0,6.97266 -33.79688,0 0,-6.97266"
         style="font-size:84px;font-variant:normal;font-stretch:normal;font-family:Monospace;-inkscape-font-specification:Monospace"
         id="path3063"
         inkscape:connector-curvature="0" />
      <path
         d="m 598.34625,598.02887 c -2e-5,-1.50387 0.51951,-2.8027 1.5586,-3.89648 1.06638,-1.09372 2.33786,-1.64059 3.81445,-1.64063 1.53122,4e-5 2.84372,0.54691 3.9375,1.64063 1.09372,1.09378 1.64059,2.39261 1.64062,3.89648 -3e-5,1.53128 -0.5469,2.83011 -1.64062,3.89648 -1.06643,1.06644 -2.37893,1.59964 -3.9375,1.59961 -1.53127,3e-5 -2.81643,-0.5195 -3.85547,-1.55859 -1.01174,-1.03904 -1.5176,-2.35153 -1.51758,-3.9375 m 5.45508,-25.01953 c -3.85549,5e-5 -6.74025,2.07818 -8.6543,6.23437 -1.88673,4.1563 -2.83009,10.48637 -2.83007,18.99024 -2e-5,8.47658 0.94334,14.79298 2.83007,18.94922 1.91405,4.15625 4.79881,6.23438 8.6543,6.23437 3.88278,10e-6 6.76755,-2.07812 8.6543,-6.23437 1.91402,-4.15624 2.87105,-10.47264 2.87109,-18.94922 -4e-5,-8.50387 -0.95707,-14.83394 -2.87109,-18.99024 -1.88675,-4.15619 -4.77152,-6.23432 -8.6543,-6.23437 m 0,-6.5625 c 6.53513,6e-5 11.47067,2.67975 14.80664,8.03906 3.36324,5.35942 5.04488,13.27543 5.04492,23.74805 -4e-5,10.44533 -1.68168,18.34767 -5.04492,23.70703 -3.33597,5.35938 -8.27151,8.03906 -14.80664,8.03906 -6.53517,0 -11.47072,-2.67968 -14.80664,-8.03906 -3.33594,-5.35936 -5.00391,-13.2617 -5.00391,-23.70703 0,-10.47262 1.66797,-18.38863 5.00391,-23.74805 3.33592,-5.35931 8.27147,-8.039 14.80664,-8.03906"
         style="font-size:84px;font-variant:normal;font-stretch:normal;font-family:Monospace;-inkscape-font-specification:Monospace"
         id="path3065"
         inkscape:connector-curvature="0" />
      <path
         d="m 800.47125,598.02887 c -2e-5,-1.50387 0.51951,-2.8027 1.5586,-3.89648 1.06638,-1.09372 2.33786,-1.64059 3.81445,-1.64063 1.53122,4e-5 2.84372,0.54691 3.9375,1.64063 1.09372,1.09378 1.64059,2.39261 1.64062,3.89648 -3e-5,1.53128 -0.5469,2.83011 -1.64062,3.89648 -1.06643,1.06644 -2.37893,1.59964 -3.9375,1.59961 -1.53127,3e-5 -2.81643,-0.5195 -3.85547,-1.55859 -1.01174,-1.03904 -1.5176,-2.35153 -1.51758,-3.9375 m 5.45508,-25.01953 c -3.85549,5e-5 -6.74025,2.07818 -8.6543,6.23437 -1.88673,4.1563 -2.83009,10.48637 -2.83007,18.99024 -2e-5,8.47658 0.94334,14.79298 2.83007,18.94922 1.91405,4.15625 4.79881,6.23438 8.6543,6.23437 3.88278,10e-6 6.76755,-2.07812 8.6543,-6.23437 1.91402,-4.15624 2.87105,-10.47264 2.87109,-18.94922 -4e-5,-8.50387 -0.95707,-14.83394 -2.87109,-18.99024 -1.88675,-4.15619 -4.77152,-6.23432 -8.6543,-6.23437 m 0,-6.5625 c 6.53513,6e-5 11.47067,2.67975 14.80664,8.03906 3.36324,5.35942 5.04488,13.27543 5.04492,23.74805 -4e-5,10.44533 -1.68168,18.34767 -5.04492,23.70703 -3.33597,5.35938 -8.27151,8.03906 -14.80664,8.03906 -6.53517,0 -11.47072,-2.67968 -14.80664,-8.03906 -3.33594,-5.35936 -5.00391,-13.2617 -5.00391,-23.70703 0,-10.47262 1.66797,-18.38863 5.00391,-23.74805 3.33592,-5.35931 8.27147,-8.039 14.80664,-8.03906"
         style="font-size:84px;font-variant:normal;font-stretch:normal;font-family:Monospace;-inkscape-font-specification:Monospace"
         id="path3067"
         inkscape:connector-curvature="0" />
      <path
         d="m 194.09625,703.02887 c -2e-5,-1.50387 0.51951,-2.8027 1.5586,-3.89648 1.06638,-1.09372 2.33786,-1.64059 3.81445,-1.64063 1.53122,4e-5 2.84372,0.54691 3.9375,1.64063 1.09372,1.09378 1.64059,2.39261 1.64062,3.89648 -3e-5,1.53128 -0.5469,2.83011 -1.64062,3.89648 -1.06643,1.06644 -2.37893,1.59964 -3.9375,1.59961 -1.53127,3e-5 -2.81643,-0.5195 -3.85547,-1.55859 -1.01174,-1.03904 -1.5176,-2.35153 -1.51758,-3.9375 m 5.45508,-25.01953 c -3.85549,5e-5 -6.74025,2.07818 -8.6543,6.23437 -1.88673,4.1563 -2.83009,10.48637 -2.83007,18.99024 -2e-5,8.47658 0.94334,14.79298 2.83007,18.94922 1.91405,4.15625 4.79881,6.23438 8.6543,6.23437 3.88278,10e-6 6.76755,-2.07812 8.6543,-6.23437 1.91402,-4.15624 2.87105,-10.47264 2.87109,-18.94922 -4e-5,-8.50387 -0.95707,-14.83394 -2.87109,-18.99024 -1.88675,-4.15619 -4.77152,-6.23432 -8.6543,-6.23437 m 0,-6.5625 c 6.53513,6e-5 11.47067,2.67975 14.80664,8.03906 3.36324,5.35942 5.04488,13.27543 5.04492,23.74805 -4e-5,10.44533 -1.68168,18.34767 -5.04492,23.70703 -3.33597,5.35938 -8.27151,8.03906 -14.80664,8.03906 -6.53517,0 -11.47072,-2.67968 -14.80664,-8.03906 -3.33594,-5.35936 -5.00391,-13.2617 -5.00391,-23.70703 0,-10.47262 1.66797,-18.38863 5.00391,-23.74805 3.33592,-5.35931 8.27147,-8.039 14.80664,-8.03906"
         style="font-size:84px;font-variant:normal;font-stretch:normal;font-family:Monospace;-inkscape-font-specification:Monospace"
         id="path3069"
         inkscape:connector-curvature="0" />
      <path
         d="m 396.22125,703.02887 c -2e-5,-1.50387 0.51951,-2.8027 1.5586,-3.89648 1.06638,-1.09372 2.33786,-1.64059 3.81445,-1.64063 1.53122,4e-5 2.84372,0.54691 3.9375,1.64063 1.09372,1.09378 1.64059,2.39261 1.64062,3.89648 -3e-5,1.53128 -0.5469,2.83011 -1.64062,3.89648 -1.06643,1.06644 -2.37893,1.59964 -3.9375,1.59961 -1.53127,3e-5 -2.81643,-0.5195 -3.85547,-1.55859 -1.01174,-1.03904 -1.5176,-2.35153 -1.51758,-3.9375 m 5.45508,-25.01953 c -3.85549,5e-5 -6.74025,2.07818 -8.6543,6.23437 -1.88673,4.1563 -2.83009,10.48637 -2.83007,18.99024 -2e-5,8.47658 0.94334,14.79298 2.83007,18.94922 1.91405,4.15625 4.79881,6.23438 8.6543,6.23437 3.88278,10e-6 6.76755,-2.07812 8.6543,-6.23437 1.91402,-4.15624 2.87105,-10.47264 2.87109,-18.94922 -4e-5,-8.50387 -0.95707,-14.83394 -2.87109,-18.99024 -1.88675,-4.15619 -4.77152,-6.23432 -8.6543,-6.23437 m 0,-6.5625 c 6.53513,6e-5 11.47067,2.67975 14.80664,8.03906 3.36324,5.35942 5.04488,13.27543 5.04492,23.74805 -4e-5,10.44533 -1.68168,18.34767 -5.04492,23.70703 -3.33597,5.35938 -8.27151,8.03906 -14.80664,8.03906 -6.53517,0 -11.47072,-2.67968 -14.80664,-8.03906 -3.33594,-5.35936 -5.00391,-13.2617 -5.00391,-23.70703 0,-10.47262 1.66797,-18.38863 5.00391,-23.74805 3.33592,-5.35931 8.27147,-8.039 14.80664,-8.03906"
         style="font-size:84px;font-variant:normal;font-stretch:normal;font-family:Monospace;-inkscape-font-specification:Monospace"
         id="path3071"
         inkscape:connector-curvature="0" />
      <path
         d="m 589.60992,726.81793 12.87891,0 0,-46.79883 -13.86328,3.11719 0,-7.54687 13.78125,-3.03516 8.28516,0 0,54.26367 12.71484,0 0,6.97266 -33.79688,0 0,-6.97266"
         style="font-size:84px;font-variant:normal;font-stretch:normal;font-family:Monospace;-inkscape-font-specification:Monospace"
         id="path3073"
         inkscape:connector-curvature="0" />
      <path
         d="m 800.47125,703.02887 c -2e-5,-1.50387 0.51951,-2.8027 1.5586,-3.89648 1.06638,-1.09372 2.33786,-1.64059 3.81445,-1.64063 1.53122,4e-5 2.84372,0.54691 3.9375,1.64063 1.09372,1.09378 1.64059,2.39261 1.64062,3.89648 -3e-5,1.53128 -0.5469,2.83011 -1.64062,3.89648 -1.06643,1.06644 -2.37893,1.59964 -3.9375,1.59961 -1.53127,3e-5 -2.81643,-0.5195 -3.85547,-1.55859 -1.01174,-1.03904 -1.5176,-2.35153 -1.51758,-3.9375 m 5.45508,-25.01953 c -3.85549,5e-5 -6.74025,2.07818 -8.6543,6.23437 -1.88673,4.1563 -2.83009,10.48637 -2.83007,18.99024 -2e-5,8.47658 0.94334,14.79298 2.83007,18.94922 1.91405,4.15625 4.79881,6.23438 8.6543,6.23437 3.88278,10e-6 6.76755,-2.07812 8.6543,-6.23437 1.91402,-4.15624 2.87105,-10.47264 2.87109,-18.94922 -4e-5,-8.50387 -0.95707,-14.83394 -2.87109,-18.99024 -1.88675,-4.15619 -4.77152,-6.23432 -8.6543,-6.23437 m 0,-6.5625 c 6.53513,6e-5 11.47067,2.67975 14.80664,8.03906 3.36324,5.35942 5.04488,13.27543 5.04492,23.74805 -4e-5,10.44533 -1.68168,18.34767 -5.04492,23.70703 -3.33597,5.35938 -8.27151,8.03906 -14.80664,8.03906 -6.53517,0 -11.47072,-2.67968 -14.80664,-8.03906 -3.33594,-5.35936 -5.00391,-13.2617 -5.00391,-23.70703 0,-10.47262 1.66797,-18.38863 5.00391,-23.74805 3.33592,-5.35931 8.27147,-8.039 14.80664,-8.03906"
         style="font-size:84px;font-variant:normal;font-stretch:normal;font-family:Monospace;-inkscape-font-specification:Monospace"
         id="path3075"
         inkscape:connector-curvature="0" />
      <path
         d="m 194.09625,808.02887 c -2e-5,-1.50387 0.51951,-2.8027 1.5586,-3.89648 1.06638,-1.09372 2.33786,-1.64059 3.81445,-1.64063 1.53122,4e-5 2.84372,0.54691 3.9375,1.64063 1.09372,1.09378 1.64059,2.39261 1.64062,3.89648 -3e-5,1.53128 -0.5469,2.83011 -1.64062,3.89648 -1.06643,1.06644 -2.37893,1.59964 -3.9375,1.59961 -1.53127,3e-5 -2.81643,-0.5195 -3.85547,-1.55859 -1.01174,-1.03904 -1.5176,-2.35153 -1.51758,-3.9375 m 5.45508,-25.01953 c -3.85549,5e-5 -6.74025,2.07818 -8.6543,6.23437 -1.88673,4.1563 -2.83009,10.48637 -2.83007,18.99024 -2e-5,8.47658 0.94334,14.79298 2.83007,18.94922 1.91405,4.15625 4.79881,6.23438 8.6543,6.23437 3.88278,10e-6 6.76755,-2.07812 8.6543,-6.23437 1.91402,-4.15624 2.87105,-10.47264 2.87109,-18.94922 -4e-5,-8.50387 -0.95707,-14.83394 -2.87109,-18.99024 -1.88675,-4.15619 -4.77152,-6.23432 -8.6543,-6.23437 m 0,-6.5625 c 6.53513,6e-5 11.47067,2.67975 14.80664,8.03906 3.36324,5.35942 5.04488,13.27543 5.04492,23.74805 -4e-5,10.44533 -1.68168,18.34767 -5.04492,23.70703 -3.33597,5.35938 -8.27151,8.03906 -14.80664,8.03906 -6.53517,0 -11.47072,-2.67968 -14.80664,-8.03906 -3.33594,-5.35936 -5.00391,-13.2617 -5.00391,-23.70703 0,-10.47262 1.66797,-18.38863 5.00391,-23.74805 3.33592,-5.35931 8.27147,-8.039 14.80664,-8.03906"
         style="font-size:84px;font-variant:normal;font-stretch:normal;font-family:Monospace;-inkscape-font-specification:Monospace"
         id="path3077"
         inkscape:connector-curvature="0" />
      <path
         d="m 396.22125,808.02887 c -2e-5,-1.50387 0.51951,-2.8027 1.5586,-3.89648 1.06638,-1.09372 2.33786,-1.64059 3.81445,-1.64063 1.53122,4e-5 2.84372,0.54691 3.9375,1.64063 1.09372,1.09378 1.64059,2.39261 1.64062,3.89648 -3e-5,1.53128 -0.5469,2.83011 -1.64062,3.89648 -1.06643,1.06644 -2.37893,1.59964 -3.9375,1.59961 -1.53127,3e-5 -2.81643,-0.5195 -3.85547,-1.55859 -1.01174,-1.03904 -1.5176,-2.35153 -1.51758,-3.9375 m 5.45508,-25.01953 c -3.85549,5e-5 -6.74025,2.07818 -8.6543,6.23437 -1.88673,4.1563 -2.83009,10.48637 -2.83007,18.99024 -2e-5,8.47658 0.94334,14.79298 2.83007,18.94922 1.91405,4.15625 4.79881,6.23438 8.6543,6.23437 3.88278,10e-6 6.76755,-2.07812 8.6543,-6.23437 1.91402,-4.15624 2.87105,-10.47264 2.87109,-18.94922 -4e-5,-8.50387 -0.95707,-14.83394 -2.87109,-18.99024 -1.88675,-4.15619 -4.77152,-6.23432 -8.6543,-6.23437 m 0,-6.5625 c 6.53513,6e-5 11.47067,2.67975 14.80664,8.03906 3.36324,5.35942 5.04488,13.27543 5.04492,23.74805 -4e-5,10.44533 -1.68168,18.34767 -5.04492,23.70703 -3.33597,5.35938 -8.27151,8.03906 -14.80664,8.03906 -6.53517,0 -11.47072,-2.67968 -14.80664,-8.03906 -3.33594,-5.35936 -5.00391,-13.2617 -5.00391,-23.70703 0,-10.47262 1.66797,-18.38863 5.00391,-23.74805 3.33592,-5.35931 8.27147,-8.039 14.80664,-8.03906"
         style="font-size:84px;font-variant:normal;font-stretch:normal;font-family:Monospace;-inkscape-font-specification:Monospace"
         id="path3079"
         inkscape:connector-curvature="0" />
      <path
         d="m 598.34625,808.02887 c -2e-5,-1.50387 0.51951,-2.8027 1.5586,-3.89648 1.06638,-1.09372 2.33786,-1.64059 3.81445,-1.64063 1.53122,4e-5 2.84372,0.54691 3.9375,1.64063 1.09372,1.09378 1.64059,2.39261 1.64062,3.89648 -3e-5,1.53128 -0.5469,2.83011 -1.64062,3.89648 -1.06643,1.06644 -2.37893,1.59964 -3.9375,1.59961 -1.53127,3e-5 -2.81643,-0.5195 -3.85547,-1.55859 -1.01174,-1.03904 -1.5176,-2.35153 -1.51758,-3.9375 m 5.45508,-25.01953 c -3.85549,5e-5 -6.74025,2.07818 -8.6543,6.23437 -1.88673,4.1563 -2.83009,10.48637 -2.83007,18.99024 -2e-5,8.47658 0.94334,14.79298 2.83007,18.94922 1.91405,4.15625 4.79881,6.23438 8.6543,6.23437 3.88278,10e-6 6.76755,-2.07812 8.6543,-6.23437 1.91402,-4.15624 2.87105,-10.47264 2.87109,-18.94922 -4e-5,-8.50387 -0.95707,-14.83394 -2.87109,-18.99024 -1.88675,-4.15619 -4.77152,-6.23432 -8.6543,-6.23437 m 0,-6.5625 c 6.53513,6e-5 11.47067,2.67975 14.80664,8.03906 3.36324,5.35942 5.04488,13.27543 5.04492,23.74805 -4e-5,10.44533 -1.68168,18.34767 -5.04492,23.70703 -3.33597,5.35938 -8.27151,8.03906 -14.80664,8.03906 -6.53517,0 -11.47072,-2.67968 -14.80664,-8.03906 -3.33594,-5.35936 -5.00391,-13.2617 -5.00391,-23.70703 0,-10.47262 1.66797,-18.38863 5.00391,-23.74805 3.33592,-5.35931 8.27147,-8.039 14.80664,-8.03906"
         style="font-size:84px;font-variant:normal;font-stretch:normal;font-family:Monospace;-inkscape-font-specification:Monospace"
         id="path3081"
         inkscape:connector-curvature="0" />
      <path
         d="m 791.73492,831.81793 12.87891,0 0,-46.79883 -13.86328,3.11719 0,-7.54687 13.78125,-3.03516 8.28516,0 0,54.26367 12.71484,0 0,6.97266 -33.79688,0 0,-6.97266"
         style="font-size:84px;font-variant:normal;font-stretch:normal;font-family:Monospace;-inkscape-font-specification:Monospace"
         id="path3083"
         inkscape:connector-curvature="0" />
    </g>
    <text
       xml:space="preserve"
       style="font-size:23.22571945px;font-style:normal;font-weight:normal;line-height:125%;letter-spacing:0px;word-spacing:0px;fill:#000000;fill-opacity:1;stroke:none;font-family:Sans"
       x="86.093575"
       y="416.15427"
       id="text3104"
       sodipodi:linespacing="125%"><tspan
         sodipodi:role="line"
         id="tspan3106"
         x="86.093575"
         y="416.15427" /></text>
    <g
       transform="matrix(0.64812353,0,0,0.56180779,27.755489,146.1571)"
       style="font-size:581.18731689px;font-style:normal;font-variant:normal;font-weight:normal;font-stretch:normal;line-height:125%;letter-spacing:0px;word-spacing:0px;fill:#000000;fill-opacity:1;stroke:none;font-family:Monospace;-inkscape-font-specification:Monospace"
       id="text2985-7">
      <path
         d="m 59.294758,461.44423 58.607312,0 0,18.3164 -40.235782,0 0,481.55472 40.235782,0 0,18.3164 -58.607312,0 0,-518.18752"
         id="path3013-9"
         inkscape:connector-curvature="0"
         sodipodi:nodetypes="ccccccccc" />
      <path
         sodipodi:nodetypes="ccccccccc"
         inkscape:connector-curvature="0"
         id="path3130"
         d="m 59.294758,461.44423 58.607312,0 0,18.3164 -40.235782,0 0,481.55472 40.235782,0 0,18.3164 -58.607312,0 0,-518.18752" />
    </g>
    <g
       id="g3132"
       style="font-size:581.18731689px;font-style:normal;font-variant:normal;font-weight:normal;font-stretch:normal;line-height:125%;letter-spacing:0px;word-spacing:0px;fill:#000000;fill-opacity:1;stroke:none;font-family:Monospace;-inkscape-font-specification:Monospace"
       transform="matrix(-0.64812353,0,0,0.56180779,603.60853,146.1571)">
      <path
         sodipodi:nodetypes="ccccccccc"
         inkscape:connector-curvature="0"
         id="path3134"
         d="m 59.294758,461.44423 58.607312,0 0,18.3164 -40.235782,0 0,481.55472 40.235782,0 0,18.3164 -58.607312,0 0,-518.18752" />
      <path
         d="m 59.294758,461.44423 58.607312,0 0,18.3164 -40.235782,0 0,481.55472 40.235782,0 0,18.3164 -58.607312,0 0,-518.18752"
         id="path3136"
         inkscape:connector-curvature="0"
         sodipodi:nodetypes="ccccccccc" />
    </g>
  </g>
</svg>
